<svg width="134" height="135" viewBox="0 0 134 135" fill="none" xmlns="http://www.w3.org/2000/svg">
<rect y="15" width="118" height="120" rx="30" fill="white"/>
<rect x="14" width="120" height="120" rx="30" fill="url(#paint0_linear)"/>
<path d="M75.4122 23.0288C55.3187 22.2497 38.3603 37.344 37.039 57.474C36.4649 66.2191 42.4247 79.2555 42.4247 79.2555C42.4247 79.2555 48.7813 88.8511 44.6126 93.1011C40.444 97.3512 49.83 96.9558 49.83 96.9558H71.0363C72.7452 96.9558 73.7062 97.0552 75.4122 96.9558C96.0783 95.7517 112.247 78.11 110.924 57.474C109.686 38.1613 94.688 23.7763 75.4122 23.0288Z" fill="#FFFEFE"/>
<circle cx="53.5" cy="58.5" r="5.5" fill="url(#paint1_linear)"/>
<circle cx="73.5" cy="59.5" r="6.5" fill="url(#paint2_linear)"/>
<circle cx="93.5" cy="60.5" r="7.5" fill="url(#paint3_linear)"/>
<defs>
<linearGradient id="paint0_linear" x1="74" y1="0" x2="74" y2="120" gradientUnits="userSpaceOnUse">
<stop stop-color="#8552EC"/>
<stop offset="1" stop-color="#00C1F9"/>
</linearGradient>
<linearGradient id="paint1_linear" x1="53.5" y1="53" x2="53.5" y2="64" gradientUnits="userSpaceOnUse">
<stop stop-color="#8552EC"/>
<stop offset="1" stop-color="#00C1F9"/>
</linearGradient>
<linearGradient id="paint2_linear" x1="73.5" y1="53" x2="73.5" y2="66" gradientUnits="userSpaceOnUse">
<stop stop-color="#8552EC"/>
<stop offset="1" stop-color="#00C1F9"/>
</linearGradient>
<linearGradient id="paint3_linear" x1="93.5" y1="53" x2="93.5" y2="68" gradientUnits="userSpaceOnUse">
<stop stop-color="#8552EC"/>
<stop offset="1" stop-color="#00C1F9"/>
</linearGradient>
</defs>
</svg>
